<svg width="24" height="24" viewBox="0 0 24 24" fill="none" xmlns="http://www.w3.org/2000/svg">
<path fill-rule="evenodd" clip-rule="evenodd" d="M12 2C17.523 2 22 6.477 22 12C22.0034 14.3079 21.2053 16.5453 19.742 18.33L19.762 18.352L19.63 18.464C18.6921 19.5731 17.5235 20.4641 16.2056 21.0749C14.8878 21.6856 13.4525 22.0013 12 22C9.05 22 6.40001 20.723 4.57001 18.693L4.37001 18.463L4.23801 18.353L4.25801 18.329C2.79491 16.5446 1.9968 14.3075 2.00001 12C2.00001 6.477 6.47701 2 12 2ZM12 17C10.14 17 8.459 17.592 7.207 18.406C8.58959 19.4429 10.2718 20.0024 12 20C13.7282 20.0024 15.4104 19.4429 16.793 18.406C15.3623 17.4894 13.6991 17.0015 12 17ZM12 4C10.4945 3.99996 9.01959 4.42471 7.74473 5.22545C6.46986 6.02618 5.44681 7.17039 4.79317 8.52656C4.13952 9.88274 3.88181 11.3958 4.04966 12.8919C4.2175 14.388 4.8041 15.8064 5.74201 16.984C7.363 15.821 9.575 15 12 15C14.425 15 16.637 15.821 18.258 16.984C19.1959 15.8064 19.7825 14.388 19.9503 12.8919C20.1182 11.3958 19.8605 9.88274 19.2068 8.52656C18.5532 7.17039 17.5301 6.02618 16.2553 5.22545C14.9804 4.42471 13.5055 3.99996 12 4ZM12 6C13.0609 6 14.0783 6.42142 14.8284 7.17157C15.5786 7.92171 16 8.93913 16 9.99999C16 11.0609 15.5786 12.0783 14.8284 12.8284C14.0783 13.5786 13.0609 14 12 14C10.9391 14 9.92172 13.5786 9.17157 12.8284C8.42143 12.0783 8 11.0609 8 9.99999C8 8.93913 8.42143 7.92171 9.17157 7.17157C9.92172 6.42142 10.9391 6 12 6ZM12 7.99999C11.4696 7.99999 10.9609 8.21071 10.5858 8.58578C10.2107 8.96085 10 9.46956 10 9.99999C10 10.5304 10.2107 11.0391 10.5858 11.4142C10.9609 11.7893 11.4696 12 12 12C12.5304 12 13.0391 11.7893 13.4142 11.4142C13.7893 11.0391 14 10.5304 14 9.99999C14 9.46956 13.7893 8.96085 13.4142 8.58578C13.0391 8.21071 12.5304 7.99999 12 7.99999Z" fill="white"/>
</svg>
