<svg width="24" height="24" viewBox="0 0 24 24" fill="none" xmlns="http://www.w3.org/2000/svg">
<path d="M3.32227 15.4621C3.32227 16.3572 3.67782 17.2156 4.31072 17.8485C4.94362 18.4814 5.80201 18.8369 6.69706 18.8369H8.38446C8.68281 18.8369 8.96894 18.7184 9.17991 18.5075C9.39087 18.2965 9.50939 18.0104 9.50939 17.712C9.50939 17.4137 9.39087 17.1275 9.17991 16.9166C8.96894 16.7056 8.68281 16.5871 8.38446 16.5871H6.69706C6.39871 16.5871 6.11258 16.4686 5.90161 16.2576C5.69065 16.0466 5.57213 15.7605 5.57213 15.4621V6.46269C5.57213 6.16434 5.69065 5.8782 5.90161 5.66724C6.11258 5.45627 6.39871 5.33775 6.69706 5.33775H15.6965C15.9949 5.33775 16.281 5.45627 16.492 5.66724C16.7029 5.8782 16.8214 6.16434 16.8214 6.46269V9.27501C16.8214 9.57337 16.94 9.8595 17.1509 10.0705C17.3619 10.2814 17.648 10.3999 17.9464 10.3999C18.2447 10.3999 18.5309 10.2814 18.7418 10.0705C18.9528 9.8595 19.0713 9.57337 19.0713 9.27501V6.46269C19.0713 5.56763 18.7158 4.70924 18.0829 4.07635C17.45 3.44345 16.5916 3.08789 15.6965 3.08789H6.69706C5.80201 3.08789 4.94362 3.44345 4.31072 4.07635C3.67782 4.70924 3.32227 5.56763 3.32227 6.46269V15.4621Z" fill="white"/>
<path d="M16.1774 20.6031C16.2712 20.7387 16.3937 20.8519 16.5362 20.9349C16.6786 21.0179 16.8376 21.0686 17.0018 21.0834C17.166 21.0981 17.3314 21.0766 17.4864 21.0203C17.6414 20.9641 17.7821 20.8744 17.8986 20.7578L20.0416 18.6091C20.502 18.1473 20.7605 17.5218 20.7605 16.8697C20.7605 16.2176 20.502 15.5921 20.0416 15.1303L17.8986 12.9789C17.7821 12.8622 17.6414 12.7725 17.4864 12.7163C17.3314 12.66 17.166 12.6385 17.0018 12.6532C16.8376 12.668 16.6786 12.7187 16.5362 12.8017C16.3937 12.8847 16.2712 12.998 16.1774 13.1335C16.0286 13.3625 15.9646 13.6363 15.9965 13.9075C16.0283 14.1787 16.154 14.4302 16.3518 14.6184L17.4767 15.7434H12.8842C12.5858 15.7434 12.2997 15.8619 12.0887 16.0729C11.8778 16.2838 11.7593 16.57 11.7593 16.8683C11.7593 17.1667 11.8778 17.4528 12.0887 17.6638C12.2997 17.8747 12.5858 17.9932 12.8842 17.9932H17.4795L16.3546 19.1182C16.1559 19.3058 16.0293 19.5572 15.9969 19.8285C15.9646 20.0999 16.0284 20.374 16.1774 20.6031Z" fill="white"/>
</svg>
