<svg width="24" height="24" viewBox="0 0 24 24" fill="none" xmlns="http://www.w3.org/2000/svg">
<path d="M17.484 16.5871H15.7966C15.4983 16.5871 15.2121 16.7056 15.0012 16.9166C14.7902 17.1275 14.6717 17.4137 14.6717 17.712C14.6717 18.0104 14.7902 18.2965 15.0012 18.5075C15.2121 18.7184 15.4983 18.8369 15.7966 18.8369H17.484C18.3791 18.8369 19.2375 18.4814 19.8703 17.8485C20.5032 17.2156 20.8588 16.3572 20.8588 15.4621V6.46269C20.8588 5.56763 20.5032 4.70924 19.8703 4.07635C19.2375 3.44345 18.3791 3.08789 17.484 3.08789H8.48456C7.5895 3.08789 6.73111 3.44345 6.09822 4.07635C5.46532 4.70924 5.10976 5.56763 5.10976 6.46269V9.83748C5.10976 10.1358 5.22828 10.422 5.43925 10.6329C5.65021 10.8439 5.93634 10.9624 6.23469 10.9624C6.53304 10.9624 6.81917 10.8439 7.03014 10.6329C7.2411 10.422 7.35962 10.1358 7.35962 9.83748V6.46269C7.35962 6.16434 7.47814 5.87821 7.68911 5.66724C7.90007 5.45627 8.18621 5.33775 8.48456 5.33775H17.484C17.7824 5.33775 18.0685 5.45627 18.2795 5.66724C18.4904 5.87821 18.6089 6.16434 18.6089 6.46269V15.4621C18.6089 15.7605 18.4904 16.0466 18.2795 16.2576C18.0685 16.4686 17.7824 16.5871 17.484 16.5871Z" fill="white"/>
<path d="M7.84053 20.6031C7.93435 20.7387 8.05682 20.8519 8.19927 20.9349C8.34173 21.0179 8.50068 21.0686 8.66489 21.0834C8.8291 21.0981 8.99454 21.0766 9.14951 21.0203C9.30448 20.9641 9.44519 20.8744 9.56168 20.7578L11.7047 18.6063C12.1651 18.1445 12.4236 17.519 12.4236 16.8669C12.4236 16.2148 12.1651 15.5893 11.7047 15.1275L9.56168 12.9789C9.44519 12.8622 9.30448 12.7725 9.14951 12.7163C8.99454 12.66 8.8291 12.6385 8.66489 12.6532C8.50068 12.668 8.34173 12.7187 8.19927 12.8017C8.05682 12.8847 7.93435 12.998 7.84053 13.1335C7.69174 13.3625 7.62772 13.6363 7.65957 13.9075C7.69141 14.1787 7.81712 14.4302 8.0149 14.6184L9.13983 15.7434H4.54729C4.24894 15.7434 3.96281 15.8619 3.75185 16.0729C3.54088 16.2838 3.42236 16.57 3.42236 16.8683C3.42236 17.1667 3.54088 17.4528 3.75185 17.6638C3.96281 17.8747 4.24894 17.9932 4.54729 17.9932H9.14264L8.01771 19.1182C7.81901 19.3058 7.69243 19.5572 7.66006 19.8285C7.62768 20.0999 7.69155 20.374 7.84053 20.6031Z" fill="white"/>
</svg>
