<svg width="24" height="24" viewBox="0 0 24 24" fill="none" xmlns="http://www.w3.org/2000/svg">
<path d="M12.1603 19.9965C15.7835 19.9965 18.9189 17.669 19.9666 14.2057C20.0546 13.9258 19.9746 13.6138 19.7667 13.4059C19.5587 13.1979 19.2548 13.1179 18.9668 13.2059C18.343 13.3899 17.7031 13.4859 17.0632 13.4859C13.448 13.4859 10.5046 10.5425 10.5046 6.92725C10.5046 6.28739 10.6006 5.64752 10.7846 5.02365C10.8268 4.88474 10.8304 4.73696 10.7952 4.59612C10.76 4.45528 10.6871 4.32665 10.5844 4.22399C10.4818 4.12133 10.3532 4.04848 10.2123 4.01323C10.0715 3.97799 9.9237 3.98166 9.78478 4.02386C8.10804 4.53019 6.63952 5.56422 5.59762 6.97215C4.55573 8.38008 3.99611 10.0867 4.002 11.8382C4.002 16.3333 7.66523 19.9965 12.1603 19.9965Z" fill="white"/>
</svg>
