<svg width="24" height="24" viewBox="0 0 24 24" fill="none" xmlns="http://www.w3.org/2000/svg">
<path d="M11.175 20.688C10.9083 20.5627 10.675 20.3833 10.475 20.15L2.825 11C2.675 10.8167 2.56267 10.6167 2.488 10.4C2.41333 10.1833 2.37567 9.95833 2.375 9.725C2.375 9.575 2.38767 9.421 2.413 9.263C2.43833 9.105 2.49233 8.959 2.575 8.825L4.45 5.1C4.63333 4.76667 4.87933 4.5 5.188 4.3C5.49667 4.1 5.84233 4 6.225 4H17.775C18.1583 4 18.5043 4.1 18.813 4.3C19.1217 4.5 19.3673 4.76667 19.55 5.1L21.425 8.825C21.5083 8.95833 21.5627 9.104 21.588 9.262C21.6133 9.42 21.6257 9.57433 21.625 9.725C21.625 9.95833 21.5877 10.1833 21.513 10.4C21.4383 10.6167 21.3257 10.8167 21.175 11L13.525 20.15C13.325 20.3833 13.0917 20.5627 12.825 20.688C12.5583 20.8133 12.2833 20.8757 12 20.875C11.7167 20.8743 11.4417 20.812 11.175 20.688ZM9.625 9H14.375L12.875 6H11.125L9.625 9ZM11 17.675V11H5.45L11 17.675ZM13 17.675L18.55 11H13V17.675ZM16.6 9H19.25L17.75 6H15.1L16.6 9ZM4.75 9H7.4L8.9 6H6.25L4.75 9Z" fill="white"/>
</svg>
