<svg width="24" height="24" viewBox="0 0 24 24" fill="none" xmlns="http://www.w3.org/2000/svg">
<path fill-rule="evenodd" clip-rule="evenodd" d="M10.033 2.74266C10.5787 2.26876 11.2772 2.00781 12 2.00781C12.7228 2.00781 13.4213 2.26876 13.967 2.74266L20.967 8.81866C21.2914 9.10037 21.5515 9.44847 21.7297 9.83941C21.908 10.2304 22.0001 10.655 22 11.0847V18.8597C22 19.6553 21.6839 20.4184 21.1213 20.981C20.5587 21.5436 19.7956 21.8597 19 21.8597H15.5C15.1022 21.8597 14.7206 21.7016 14.4393 21.4203C14.158 21.139 14 20.7575 14 20.3597V13.5467H10V20.3597C10 20.7575 9.84197 21.139 9.56066 21.4203C9.27936 21.7016 8.89782 21.8597 8.5 21.8597H5C4.20435 21.8597 3.44129 21.5436 2.87868 20.981C2.31607 20.4184 2 19.6553 2 18.8597V11.0847C1.99988 10.655 2.09205 10.2304 2.27026 9.83941C2.44848 9.44847 2.70859 9.10037 3.033 8.81866L10.033 2.74266ZM12.656 4.25266C12.474 4.09451 12.2411 4.00742 12 4.00742C11.7589 4.00742 11.526 4.09451 11.344 4.25266L4.344 10.3297C4.23597 10.4236 4.14935 10.5396 4.09001 10.6698C4.03066 10.8001 3.99997 10.9415 4 11.0847V18.8597C4 19.1249 4.10536 19.3792 4.29289 19.5668C4.48043 19.7543 4.73478 19.8597 5 19.8597H8V13.5467C8 13.0162 8.21071 12.5075 8.58579 12.1324C8.96086 11.7574 9.46957 11.5467 10 11.5467H14C14.5304 11.5467 15.0391 11.7574 15.4142 12.1324C15.7893 12.5075 16 13.0162 16 13.5467V19.8597H19C19.2652 19.8597 19.5196 19.7543 19.7071 19.5668C19.8946 19.3792 20 19.1249 20 18.8597V11.0847C19.9999 10.9415 19.9691 10.7999 19.9095 10.6697C19.85 10.5394 19.7632 10.4235 19.655 10.3297L12.656 4.25266Z" fill="white"/>
</svg>
