<svg width="24" height="24" viewBox="0 0 24 24" fill="none" xmlns="http://www.w3.org/2000/svg">
<path fill-rule="evenodd" clip-rule="evenodd" d="M14.59 7.99902L12 10.589L9.41 7.99902L8 9.40902L10.59 11.999L8 14.589L9.41 15.999L12 13.409L14.59 15.999L16 14.589L13.41 11.999L16 9.40902L14.59 7.99902ZM12 1.99902C6.47 1.99902 2 6.46902 2 11.999C2 17.529 6.47 21.999 12 21.999C17.53 21.999 22 17.529 22 11.999C22 6.46902 17.53 1.99902 12 1.99902ZM12 19.999C7.59 19.999 4 16.409 4 11.999C4 7.58902 7.59 3.99902 12 3.99902C16.41 3.99902 20 7.58902 20 11.999C20 16.409 16.41 19.999 12 19.999Z" fill="white"/>
</svg>
