<svg width="24" height="24" viewBox="0 0 24 24" fill="none" xmlns="http://www.w3.org/2000/svg">
<path fill-rule="evenodd" clip-rule="evenodd" d="M12 2C6.47717 2 2 6.47717 2 12C2 17.5228 6.47717 22 12 22C17.5228 22 22 17.5228 22 12C22 6.47717 17.5228 2 12 2ZM12 20C7.58881 20 4.00002 16.4112 4.00002 12C4.00002 7.58877 7.58877 4.00002 12 4.00002C16.4112 4.00002 20 7.58877 20 12C20 16.4112 16.4112 20 12 20ZM15.7657 8.42722L17.1798 9.8413L11 16.047L7.29298 12.34L8.70702 10.9259L11 13.2189L15.7657 8.42722Z" fill="white"/>
</svg>
