<svg width="24" height="24" viewBox="0 0 24 24" fill="none" xmlns="http://www.w3.org/2000/svg">
<path d="M3 18.3V16.5C3 16.0029 3.40294 15.6 3.9 15.6C4.39706 15.6 4.8 16.0029 4.8 16.5V18.3C4.8 18.5387 4.89489 18.7675 5.06367 18.9363C5.23246 19.1051 5.46131 19.2 5.7 19.2H7.5C7.99706 19.2 8.4 19.6029 8.4 20.1C8.4 20.5971 7.99706 21 7.5 21H5.7C4.98391 21 4.29736 20.7153 3.79102 20.209C3.28467 19.7026 3 19.0161 3 18.3ZM19.2 18.3V16.5C19.2 16.0029 19.6029 15.6 20.1 15.6C20.5971 15.6 21 16.0029 21 16.5V18.3C21 19.0161 20.7153 19.7026 20.209 20.209C19.7026 20.7153 19.0161 21 18.3 21H16.5C16.0029 21 15.6 20.5971 15.6 20.1C15.6 19.6029 16.0029 19.2 16.5 19.2H18.3C18.5387 19.2 18.7675 19.1051 18.9363 18.9363C19.1051 18.7675 19.2 18.5387 19.2 18.3ZM16.5 11.1C16.9971 11.1 17.4 11.5029 17.4 12C17.4 12.4971 16.9971 12.9 16.5 12.9H7.5C7.00294 12.9 6.6 12.4971 6.6 12C6.6 11.5029 7.00294 11.1 7.5 11.1H16.5ZM3 7.5V5.7C3 4.98392 3.28467 4.29736 3.79102 3.79102C4.29736 3.28467 4.98392 3 5.7 3H7.5C7.99706 3 8.4 3.40294 8.4 3.9C8.4 4.39706 7.99706 4.8 7.5 4.8H5.7C5.4613 4.8 5.23245 4.89489 5.06367 5.06367C4.89489 5.23245 4.8 5.4613 4.8 5.7V7.5C4.8 7.99706 4.39706 8.4 3.9 8.4C3.40294 8.4 3 7.99706 3 7.5ZM19.2 7.5V5.7C19.2 5.46131 19.1051 5.23246 18.9363 5.06367C18.7675 4.89489 18.5387 4.8 18.3 4.8H16.5C16.0029 4.8 15.6 4.39706 15.6 3.9C15.6 3.40294 16.0029 3 16.5 3H18.3C19.0161 3 19.7026 3.28467 20.209 3.79102C20.7153 4.29736 21 4.98391 21 5.7V7.5C21 7.99706 20.5971 8.4 20.1 8.4C19.6029 8.4 19.2 7.99706 19.2 7.5Z" fill="white"/>
</svg>
