<svg width="24" height="24" viewBox="0 0 24 24" fill="none" xmlns="http://www.w3.org/2000/svg">
<path d="M4.22222 9.77734C3 9.77734 2 10.7773 2 11.9996C2 13.2218 3 14.2218 4.22222 14.2218C5.44444 14.2218 6.44444 13.2218 6.44444 11.9996C6.44444 10.7773 5.44444 9.77734 4.22222 9.77734ZM19.7778 9.77734C18.5556 9.77734 17.5556 10.7773 17.5556 11.9996C17.5556 13.2218 18.5556 14.2218 19.7778 14.2218C21 14.2218 22 13.2218 22 11.9996C22 10.7773 21 9.77734 19.7778 9.77734ZM12 9.77734C10.7778 9.77734 9.77778 10.7773 9.77778 11.9996C9.77778 13.2218 10.7778 14.2218 12 14.2218C13.2222 14.2218 14.2222 13.2218 14.2222 11.9996C14.2222 10.7773 13.2222 9.77734 12 9.77734Z" fill="white"/>
</svg>
