<svg width="24" height="24" viewBox="0 0 24 24" fill="none" xmlns="http://www.w3.org/2000/svg">
<path d="M10.5789 19.5789C10.5789 19.9558 10.7287 20.3173 10.9952 20.5838C11.2617 20.8503 11.6231 21 12 21C12.3769 21 12.7383 20.8503 13.0048 20.5838C13.2713 20.3173 13.4211 19.9558 13.4211 19.5789V13.4211H19.5789C19.9558 13.4211 20.3173 13.2713 20.5838 13.0048C20.8503 12.7383 21 12.3769 21 12C21 11.6231 20.8503 11.2617 20.5838 10.9952C20.3173 10.7287 19.9558 10.5789 19.5789 10.5789H13.4211V4.42105C13.4211 4.04417 13.2713 3.68272 13.0048 3.41622C12.7383 3.14972 12.3769 3 12 3C11.6231 3 11.2617 3.14972 10.9952 3.41622C10.7287 3.68272 10.5789 4.04417 10.5789 4.42105V10.5789H4.42105C4.04417 10.5789 3.68272 10.7287 3.41622 10.9952C3.14972 11.2617 3 11.6231 3 12C3 12.3769 3.14972 12.7383 3.41622 13.0048C3.68272 13.2713 4.04417 13.4211 4.42105 13.4211H10.5789V19.5789Z" fill="white"/>
</svg>
