<svg width="24" height="24" viewBox="0 0 24 24" fill="none" xmlns="http://www.w3.org/2000/svg">
<path fill-rule="evenodd" clip-rule="evenodd" d="M13.5732 3.5683C13.9165 3.22496 14.376 3.02283 14.8611 3.00182C15.3462 2.98081 15.8215 3.14244 16.1932 3.45481L16.3164 3.5683L20.4321 7.68407C20.7752 8.02732 20.9772 8.48668 20.9982 8.97152C21.0192 9.45637 20.8577 9.93148 20.5456 10.3031L20.4321 10.4273L10.4274 20.432C10.1053 20.7541 9.68023 20.9526 9.22653 20.9927L9.05581 20.9995H3.97972C3.73835 20.9995 3.50548 20.9104 3.32576 20.7493C3.14604 20.5882 3.03211 20.3664 3.00582 20.1265L3 20.0198V14.9437C3.00011 14.4882 3.16047 14.0473 3.453 13.6982L3.5694 13.5721L13.5732 3.5683ZM11.8989 7.98575L4.94003 14.9446V19.0594H9.05678L16.0157 12.1006L11.8999 7.98478L11.8989 7.98575ZM14.9448 4.9399L13.2705 6.61415L17.3863 10.7299L19.0605 9.05568L14.9448 4.9399Z" fill="white"/>
</svg>
