<svg width="24" height="24" viewBox="0 0 24 24" fill="none" xmlns="http://www.w3.org/2000/svg">
<path d="M6.22538 10.5714H4.77441V18.4286C4.77804 19.6107 5.75018 20.5679 6.95086 20.5714V21.2857C6.95086 21.6804 7.2755 22 7.67634 22C8.07718 22 8.40182 21.6804 8.40182 21.2857V20.5714H15.6566V21.2857C15.6566 21.6804 15.9813 22 16.3821 22C16.783 22 17.1076 21.6804 17.1076 21.2857V20.5714C18.3083 20.5679 19.2804 19.6107 19.284 18.4286V10.5714H6.22538ZM7.67634 12.7143C7.67634 12.3196 8.00098 12 8.40182 12C8.80266 12 9.1273 12.3196 9.1273 12.7143V15.5714C9.1273 15.9661 8.80266 16.2857 8.40182 16.2857C8.00098 16.2857 7.67634 15.9661 7.67634 15.5714V12.7143ZM17.1076 2H6.95086C5.75018 2.00357 4.77804 2.96071 4.77441 4.14286V9.14286H19.284V4.14286C19.2804 2.96071 18.3083 2.00357 17.1076 2ZM9.1273 7C9.1273 7.39465 8.80266 7.71429 8.40182 7.71429C8.00098 7.71429 7.67634 7.39465 7.67634 7V5.57143C7.67634 5.17678 8.00098 4.85714 8.40182 4.85714C8.80266 4.85714 9.1273 5.17678 9.1273 5.57143V7Z" fill="white"/>
</svg>
