<svg width="24" height="24" viewBox="0 0 24 24" fill="none" xmlns="http://www.w3.org/2000/svg">
<path d="M12 22C9.34784 22 6.8043 20.9464 4.92893 19.0711C3.05357 17.1957 2 14.6522 2 12C2 9.34784 3.05357 6.8043 4.92893 4.92893C6.8043 3.05357 9.34784 2 12 2C14.6522 2 17.1957 3.05357 19.0711 4.92893C20.9464 6.8043 22 9.34784 22 12C22 14.6522 20.9464 17.1957 19.0711 19.0711C17.1957 20.9464 14.6522 22 12 22ZM19.75 14C20.0887 12.6882 20.0887 11.3118 19.75 10H15.93C16.0221 11.3317 16.0221 12.6683 15.93 14H19.75ZM18.93 16H15.71C15.5429 17.2054 15.2237 18.3848 14.76 19.51C16.5167 18.862 17.9917 17.6204 18.93 16ZM10.08 14H13.92C14.0286 12.6689 14.0286 11.3311 13.92 10H10.08C9.97142 11.3311 9.97142 12.6689 10.08 14ZM10.33 16C10.74 18.4 11.46 20 12 20C12.54 20 13.26 18.4 13.67 16H10.33ZM4.25 14H8.07C7.97794 12.6683 7.97794 11.3317 8.07 10H4.25C3.91129 11.3118 3.91129 12.6882 4.25 14ZM5.07 16C6.00826 17.6204 7.48328 18.862 9.24 19.51C8.82 18.55 8.5 17.35 8.29 16H5.07ZM18.93 8C17.9917 6.3796 16.5167 5.13804 14.76 4.49C15.18 5.45 15.5 6.65 15.71 8H18.93ZM10.33 8H13.67C13.26 5.6 12.54 4 12 4C11.46 4 10.74 5.6 10.33 8ZM5.07 8H8.29C8.49 6.65 8.82 5.45 9.24 4.49C7.48328 5.13804 6.00826 6.3796 5.07 8Z" fill="white"/>
</svg>
