<svg width="24" height="24" viewBox="0 0 24 24" fill="none" xmlns="http://www.w3.org/2000/svg">
<path d="M19.2 17.4C19.2 16.9226 19.0102 16.4649 18.6727 16.1273C18.3351 15.7898 17.8774 15.6 17.4 15.6C16.9226 15.6 16.4649 15.7898 16.1273 16.1273C15.988 16.2667 15.875 16.427 15.789 16.6002C15.7827 16.6141 15.7776 16.6287 15.7705 16.6424C15.7689 16.6454 15.7668 16.6482 15.7652 16.6512C15.6585 16.8842 15.6 17.1388 15.6 17.4C15.6 17.8774 15.7898 18.3351 16.1273 18.6727C16.4649 19.0102 16.9226 19.2 17.4 19.2C17.8774 19.2 18.3351 19.0102 18.6727 18.6727C19.0102 18.3351 19.2 17.8774 19.2 17.4ZM8.4 12C8.4 11.7386 8.34072 11.4843 8.23389 11.2512C8.23236 11.2483 8.23099 11.2453 8.22949 11.2424C8.22237 11.2286 8.2165 11.2142 8.21016 11.2002C8.12418 11.0271 8.01189 10.8666 7.87266 10.7273C7.53509 10.3898 7.07739 10.2 6.6 10.2C6.12261 10.2 5.66491 10.3898 5.32734 10.7273C4.98978 11.0649 4.8 11.5226 4.8 12C4.8 12.4774 4.98978 12.9351 5.32734 13.2727C5.66491 13.6102 6.12261 13.8 6.6 13.8C7.07739 13.8 7.53509 13.6102 7.87266 13.2727C8.01189 13.1334 8.12418 12.9729 8.21016 12.7998C8.2165 12.7858 8.22237 12.7714 8.22949 12.7576C8.23099 12.7547 8.23236 12.7517 8.23389 12.7488C8.34072 12.5157 8.4 12.2614 8.4 12ZM19.2 6.6C19.2 6.12261 19.0102 5.66491 18.6727 5.32734C18.3351 4.98978 17.8774 4.8 17.4 4.8C16.9226 4.8 16.4649 4.98978 16.1273 5.32734C15.7898 5.66491 15.6 6.12261 15.6 6.6C15.6 6.86123 15.6585 7.11581 15.7652 7.34883C15.7668 7.35184 15.7689 7.35458 15.7705 7.35762C15.7776 7.37134 15.7827 7.3859 15.789 7.3998C15.875 7.57303 15.988 7.73332 16.1273 7.87266C16.4649 8.21022 16.9226 8.4 17.4 8.4C17.8774 8.4 18.3351 8.21022 18.6727 7.87266C19.0102 7.53509 19.2 7.07739 19.2 6.6ZM21 6.6C21 7.55478 20.6204 8.47018 19.9453 9.14531C19.2702 9.82044 18.3548 10.2 17.4 10.2C16.4452 10.2 15.5298 9.82044 14.8547 9.14531C14.7883 9.07891 14.7254 9.00963 14.6648 8.93877L10.1262 11.2767C10.1746 11.513 10.2 11.7552 10.2 12C10.2 12.2446 10.1745 12.4864 10.1262 12.7225L14.6648 15.0604C14.7253 14.9897 14.7884 14.9209 14.8547 14.8547C15.5298 14.1796 16.4452 13.8 17.4 13.8C18.3548 13.8 19.2702 14.1796 19.9453 14.8547C20.6204 15.5298 21 16.4452 21 17.4C21 18.3548 20.6204 19.2702 19.9453 19.9453C19.2702 20.6204 18.3548 21 17.4 21C16.4452 21 15.5298 20.6204 14.8547 19.9453C14.1796 19.2702 13.8 18.3548 13.8 17.4C13.8 17.1552 13.8245 16.9129 13.8729 16.6767L9.33428 14.3388C9.27379 14.4095 9.21158 14.479 9.14531 14.5453C8.47018 15.2204 7.55478 15.6 6.6 15.6C5.64522 15.6 4.72982 15.2204 4.05469 14.5453C3.37956 13.8702 3 12.9548 3 12C3 11.0452 3.37956 10.1298 4.05469 9.45469C4.72982 8.77956 5.64522 8.4 6.6 8.4C7.55478 8.4 8.47018 8.77956 9.14531 9.45469C9.21142 9.52079 9.27392 9.58982 9.33428 9.66035L13.8729 7.32246C13.8246 7.08648 13.8 6.84449 13.8 6.6C13.8 5.64522 14.1796 4.72982 14.8547 4.05469C15.5298 3.37956 16.4452 3 17.4 3C18.3548 3 19.2702 3.37956 19.9453 4.05469C20.6204 4.72982 21 5.64522 21 6.6Z" fill="white"/>
</svg>
