<svg width="24" height="24" viewBox="0 0 24 24" fill="none" xmlns="http://www.w3.org/2000/svg">
<path d="M9.84492 12.0004L4.45736 6.61287C4.15206 6.30758 3.99977 5.9484 4.00049 5.53536C4.00121 5.12231 4.1535 4.76314 4.45736 4.45784C4.76122 4.15255 5.12039 4.00026 5.53487 4.00098C5.94935 4.0017 6.30853 4.15399 6.61238 4.45784L11.9999 9.84541L17.3875 4.45784C17.6928 4.15255 18.052 4.00026 18.465 4.00098C18.8781 4.0017 19.2373 4.15399 19.5425 4.45784C19.8478 4.7617 20.0005 5.12123 20.0005 5.53644C20.0005 5.95164 19.8478 6.31045 19.5425 6.61287L14.155 12.0004L19.5425 17.388C19.8478 17.6933 20.0005 18.0528 20.0005 18.4666C20.0005 18.8804 19.8478 19.2392 19.5425 19.543C19.2373 19.8469 18.8777 19.9995 18.464 20.001C18.0502 20.0024 17.6914 19.8498 17.3875 19.543L11.9999 14.1555L6.61238 19.543C6.30709 19.8483 5.94756 20.001 5.53379 20.001C5.12003 20.001 4.76122 19.8483 4.45736 19.543C4.1535 19.2377 4.00121 18.8786 4.00049 18.4655C3.99977 18.0525 4.15206 17.6933 4.45736 17.388L9.84492 12.0004Z" fill="white"/>
</svg>
