<svg width="24" height="24" viewBox="0 0 24 24" fill="none" xmlns="http://www.w3.org/2000/svg">
<path d="M12 2C6.48421 2 2 6.48421 2 12C2 17.5158 6.48421 22 12 22C17.5158 22 22 17.5158 22 12C22 6.48421 17.5158 2 12 2ZM18.4632 17.3474L14.9053 13.7895L14.0842 15.2211L17.3474 18.4632C15.8316 19.7053 13.9368 20.4 12 20.4C7.36842 20.4 3.6 16.6316 3.6 12C3.6 10.0632 4.29474 8.16842 5.53684 6.65263L8.61053 9.72632L9.07368 7.93684L6.65263 5.53684C8.16842 4.29474 10.0632 3.6 12 3.6C16.6316 3.6 20.4 7.36842 20.4 12C20.4 13.9368 19.7263 15.8316 18.4632 17.3474Z" fill="white"/>
<path d="M14.4632 10.5677H12.7579C12.6737 10.5677 12.6105 10.4835 12.6316 10.3993L13.6 7.68346C13.7263 7.30451 13.4527 6.90451 13.0527 6.90451H10.9474C10.6737 6.90451 10.4632 7.07293 10.379 7.32557L8.96844 12.6098C8.86318 12.9887 9.15792 13.3466 9.53686 13.3466H11.4316C11.5158 13.3466 11.579 13.4308 11.5579 13.515L10.9263 16.4414C10.8 17.0519 11.6211 17.3677 11.9369 16.8203L14.9684 11.4308C15.179 11.0519 14.9053 10.5677 14.4632 10.5677Z" fill="white"/>
</svg>
