<svg width="24" height="24" viewBox="0 0 24 24" fill="none" xmlns="http://www.w3.org/2000/svg">
<path d="M12.0001 2C10.7778 2 9.77783 3 9.77783 4.22222C9.77783 5.44444 10.7778 6.44444 12.0001 6.44444C13.2223 6.44444 14.2223 5.44444 14.2223 4.22222C14.2223 3 13.2223 2 12.0001 2ZM12.0001 17.5556C10.7778 17.5556 9.77783 18.5556 9.77783 19.7778C9.77783 21 10.7778 22 12.0001 22C13.2223 22 14.2223 21 14.2223 19.7778C14.2223 18.5556 13.2223 17.5556 12.0001 17.5556ZM12.0001 9.77778C10.7778 9.77778 9.77783 10.7778 9.77783 12C9.77783 13.2222 10.7778 14.2222 12.0001 14.2222C13.2223 14.2222 14.2223 13.2222 14.2223 12C14.2223 10.7778 13.2223 9.77778 12.0001 9.77778Z" fill="white"/>
</svg>
