<svg width="24" height="24" viewBox="0 0 24 24" fill="none" xmlns="http://www.w3.org/2000/svg">
<path d="M20.5714 11.5955H12.7143V9.48567C12.7143 9.09887 12.3929 8.78241 12 8.78241C11.6071 8.78241 11.2857 9.09887 11.2857 9.48567V11.5955H3.42857C2.64286 11.5955 2 12.2284 2 13.002V17.2216C2 17.9952 2.64286 18.6281 3.42857 18.6281V19.3314C3.42857 19.7182 3.74999 20.0346 4.14286 20.0346C4.53573 20.0346 4.85714 19.7182 4.85714 19.3314V18.6281H19.1429V19.3314C19.1429 19.7182 19.4643 20.0346 19.8571 20.0346C20.25 20.0346 20.5714 19.7182 20.5714 19.3314V18.6281C21.3571 18.6281 22 17.9952 22 17.2216V13.002C22 12.2284 21.3571 11.5955 20.5714 11.5955ZM12.7143 15.815H5.57143C5.17856 15.815 4.85714 15.4986 4.85714 15.1118C4.85714 14.725 5.17856 14.4085 5.57143 14.4085H12.7143C13.1072 14.4085 13.4286 14.725 13.4286 15.1118C13.4286 15.4986 13.1072 15.815 12.7143 15.815ZM15.5856 15.815C15.1927 15.815 14.8713 15.4986 14.8713 15.1118C14.8713 14.725 15.1856 14.4085 15.5856 14.4085C15.9785 14.4085 16.2999 14.725 16.2999 15.1118C16.2999 15.4986 15.9785 15.815 15.5856 15.815ZM18.4427 15.815C18.0499 15.815 17.7285 15.4986 17.7285 15.1118C17.7285 14.725 18.0427 14.4085 18.4427 14.4085C18.8356 14.4085 19.157 14.725 19.157 15.1118C19.157 15.4986 18.8356 15.815 18.4427 15.815Z" fill="white"/>
<path d="M9.47863 6.99601C9.20004 7.27029 9.19291 7.71334 9.47863 7.9876C9.75721 8.26188 10.2072 8.2689 10.4858 7.9876C11.3072 7.18588 12.7 7.18588 13.5285 7.9876C13.6714 8.12122 13.8499 8.19154 14.0285 8.19154C14.2071 8.19154 14.3999 8.12122 14.5357 7.98057C14.8142 7.70628 14.8071 7.25619 14.5357 6.98898C13.8571 6.32791 12.9571 5.96221 12.0143 5.96221C11.0715 5.96221 10.1714 6.32791 9.49291 6.98898L9.47863 6.99601Z" fill="white"/>
<path d="M8.45714 6.00446C9.40713 5.07616 10.6643 4.56279 12 4.56279C13.3357 4.56279 14.5856 5.07616 15.5429 6.00446C15.6786 6.13808 15.8643 6.20841 16.0429 6.20841C16.2214 6.20841 16.4072 6.13808 16.55 5.99743C16.8286 5.72315 16.8286 5.2801 16.55 5.00584C15.3286 3.8103 13.7144 3.15625 12.0072 3.15625C10.3 3.15625 8.6787 3.81027 7.4643 5.00584C7.18571 5.28013 7.18571 5.72317 7.4643 5.99743C7.74288 6.27169 8.19287 6.27172 8.47143 5.99743L8.45714 6.00446Z" fill="white"/>
</svg>
