<svg width="24" height="24" viewBox="0 0 24 24" fill="none" xmlns="http://www.w3.org/2000/svg">
<path d="M2 11.978H7.18519M22 8.27425H16.8148M22 15.6817H16.8148M16.6556 5.89277V18.0631L13.6126 18.0631C12.8034 18.079 11.9992 17.9334 11.247 17.6347C10.4948 17.336 9.80978 16.8903 9.23192 16.3237C8.65406 15.757 8.19502 15.0808 7.88164 14.3347C7.56826 13.5885 7.40685 12.7873 7.40685 11.978C7.40685 11.1686 7.56826 10.3674 7.88164 9.62126C8.19502 8.87508 8.65406 8.19888 9.23192 7.63225C9.80978 7.06562 10.4948 6.61992 11.247 6.32124C11.9992 6.02256 12.8034 5.8769 13.6126 5.89277H16.6556Z" stroke="white" stroke-width="2.09513" stroke-linecap="round" stroke-linejoin="round"/>
</svg>
