<svg width="24" height="24" viewBox="0 0 24 24" fill="none" xmlns="http://www.w3.org/2000/svg">
<path fill-rule="evenodd" clip-rule="evenodd" d="M21.5549 15.8541L14.2859 4.73659C13.7818 3.96482 12.9219 3.5 12.0002 3.5C11.0785 3.5 10.2186 3.96482 9.71362 4.73659L2.44546 15.8541C1.89648 16.6931 1.85161 17.7663 2.32925 18.6486C2.80049 19.5366 3.72613 20.088 4.73111 20.08H19.2681C20.273 20.088 21.1995 19.5366 21.6708 18.6486C22.1484 17.7662 22.1035 16.6931 21.5545 15.8541H21.5549ZM20.029 17.7599C19.8815 18.0428 19.5874 18.2175 19.2685 18.2127H4.7315C4.41494 18.2127 4.12323 18.0387 3.97256 17.7599C3.82109 17.481 3.83551 17.1412 4.00942 16.8759L11.2776 5.75841C11.4371 5.51478 11.7088 5.36733 12.0005 5.36733C12.2922 5.36733 12.5639 5.51479 12.7233 5.75841L19.9923 16.8759C20.1703 17.1396 20.1845 17.4818 20.029 17.7599ZM11.9178 8.57545C12.3834 8.59789 12.6952 8.7149 12.8971 8.94491C13.156 9.24144 13.16 9.65739 13.1296 10.0268L12.8186 13.7584C12.8154 13.7936 12.8058 13.8281 12.7906 13.8593C12.5333 14.3835 12.1751 14.4957 11.9146 14.4957H11.8962C11.6357 14.4957 11.2775 14.3835 11.0202 13.8593H11.0194C11.0034 13.8273 10.9938 13.7928 10.9906 13.7576L10.6796 10.026C10.6492 9.65657 10.6524 9.23983 10.912 8.94411C11.1132 8.7141 11.4249 8.59709 11.8906 8.57465H11.8914H11.9178L11.9178 8.57545ZM11.905 14.9612C12.3522 14.9612 12.7553 15.2305 12.9268 15.644C13.0975 16.0575 13.0029 16.5328 12.6872 16.8494C12.3706 17.1659 11.8946 17.2605 11.4818 17.089C11.0683 16.9183 10.799 16.5144 10.799 16.0672C10.7998 15.4573 11.2943 14.9628 11.905 14.9612Z" fill="white"/>
</svg>
