<svg width="24" height="24" viewBox="0 0 24 24" fill="none" xmlns="http://www.w3.org/2000/svg">
<path d="M4.81658 4.80563C4.56167 4.80563 4.34814 4.71926 4.176 4.54652C4.00386 4.37378 3.91749 4.16025 3.91689 3.90594C3.91629 3.65163 4.00266 3.4381 4.176 3.26536C4.34934 3.09262 4.56287 3.00625 4.81658 3.00625H5.71627C5.97118 3.00625 6.185 3.09262 6.35774 3.26536C6.53048 3.4381 6.61655 3.65163 6.61595 3.90594C6.61535 4.16025 6.52898 4.37408 6.35684 4.54742C6.1847 4.72076 5.97118 4.80683 5.71627 4.80563H4.81658ZM5.58131 17.4012L5.22144 19.2006H11.1144V17.4012H5.58131ZM6.09863 7.68463L6.72842 7.05485C6.89336 6.8899 7.09969 6.80743 7.3474 6.80743C7.59511 6.80743 7.80864 6.8899 7.98798 7.05485C8.16792 7.23478 8.25788 7.44831 8.25788 7.69542C8.25788 7.94254 8.16792 8.15636 7.98798 8.3369L7.3582 8.96668C7.19325 9.13162 6.98723 9.21409 6.74011 9.21409C6.493 9.21409 6.27917 9.13162 6.09863 8.96668C5.9187 8.78674 5.82873 8.57322 5.82873 8.3261C5.82873 8.07899 5.9187 7.86516 6.09863 7.68463ZM5.94119 15.6019H11.1144V13.8025H6.30106L5.94119 15.6019ZM9.23674 6.53752C8.43422 5.89275 7.90551 5.08303 7.65059 4.10837C7.59062 3.86845 7.6245 3.64353 7.75226 3.4336C7.88002 3.22368 8.06355 3.08872 8.30287 3.02874C8.54219 2.96876 8.77101 3.00265 8.98933 3.13041C9.20765 3.25816 9.34621 3.4417 9.40499 3.68102C9.55493 4.26581 9.86982 4.74955 10.3497 5.13221C10.8295 5.51488 11.3843 5.70591 12.0141 5.70531C12.6439 5.70471 13.1987 5.51338 13.6785 5.13131C14.1583 4.74925 14.4732 4.26581 14.6232 3.68102C14.6832 3.4411 14.822 3.25756 15.0397 3.13041C15.2575 3.00325 15.486 2.96936 15.7253 3.02874C15.9646 3.08812 16.1484 3.22308 16.2768 3.4336C16.4052 3.64413 16.4387 3.86905 16.3776 4.10837C16.1227 5.08303 15.5939 5.89275 14.7914 6.53752C13.9889 7.1823 13.0631 7.50469 12.0141 7.50469C10.965 7.50469 10.039 7.1823 9.23584 6.53752M11.1144 10.2038V9.30406C11.1144 9.04915 11.2008 8.83563 11.3735 8.66349C11.5462 8.49135 11.7598 8.40498 12.0141 8.40438C12.2684 8.40378 12.4822 8.49015 12.6556 8.66349C12.8289 8.83683 12.915 9.05035 12.9138 9.30406V10.2038C12.9138 10.4587 12.8274 10.6725 12.6547 10.8452C12.4819 11.018 12.2684 11.104 12.0141 11.1034C11.7598 11.1028 11.5462 11.0165 11.3735 10.8443C11.2008 10.6722 11.1144 10.4587 11.1144 10.2038ZM12.9138 19.2006H18.8067L18.4468 17.4012H12.9138V19.2006ZM12.9138 15.6019H18.087L17.7271 13.8025H12.9138V15.6019ZM16.67 8.94419L16.0402 8.31441C15.8752 8.14947 15.7889 7.94314 15.7811 7.69542C15.7733 7.44771 15.8596 7.23418 16.0402 7.05485C16.2051 6.8899 16.415 6.80743 16.67 6.80743C16.9249 6.80743 17.1348 6.8899 17.2997 7.05485L17.952 7.68463C18.132 7.84957 18.2219 8.0559 18.2219 8.30361C18.2219 8.55133 18.132 8.76485 17.952 8.94419C17.7721 9.12353 17.5586 9.21349 17.3114 9.21409C17.0643 9.21469 16.8505 9.12473 16.67 8.94419ZM19.2116 4.80563H18.3119C18.057 4.80563 17.8435 4.71926 17.6713 4.54652C17.4992 4.37378 17.4128 4.16025 17.4122 3.90594C17.4116 3.65163 17.498 3.4381 17.6713 3.26536C17.8447 3.09262 18.0582 3.00625 18.3119 3.00625H19.2116C19.4665 3.00625 19.6803 3.09262 19.8531 3.26536C20.0258 3.4381 20.1119 3.65163 20.1113 3.90594C20.1107 4.16025 20.0243 4.37408 19.8522 4.54742C19.68 4.72076 19.4665 4.80683 19.2116 4.80563ZM3.44456 18.8407L4.52418 13.4426C4.59916 13.0228 4.80548 12.6779 5.14317 12.408C5.48085 12.1381 5.86681 12.0031 6.30106 12.0031H17.7271C18.1619 12.0031 18.5482 12.1381 18.8859 12.408C19.2236 12.6779 19.4296 13.0228 19.504 13.4426L20.5836 18.8407C20.7036 19.4106 20.58 19.9129 20.2129 20.3477C19.8459 20.7826 19.3771 21 18.8067 21H5.22144C4.65164 21 4.1829 20.7826 3.81523 20.3477C3.44756 19.9129 3.324 19.4106 3.44456 18.8407Z" fill="white"/>
</svg>
