<svg width="24" height="24" viewBox="0 0 24 24" fill="none" xmlns="http://www.w3.org/2000/svg">
<path d="M19.5826 7.46662C19.5774 7.3045 19.5329 7.14607 19.4528 7.00502C19.3727 6.86397 19.2594 6.74454 19.1229 6.65703L12.1264 2.1593C11.8166 1.9594 11.4268 1.94941 11.1069 2.11932C10.7871 2.29923 10.5872 2.62907 10.5872 2.99888V9.41564L6.1794 6.19726L5 7.81645L10.5872 11.8944V12.1043L5 16.1822L6.1794 17.8014L10.5872 14.583V20.9998C10.5872 21.3696 10.7871 21.6994 11.1069 21.8793C11.2648 21.9649 11.4427 22.0063 11.6221 21.9992C11.8015 21.9922 11.9757 21.937 12.1264 21.8394L19.1229 17.3416C19.4027 17.1617 19.5726 16.8619 19.5826 16.532C19.5826 16.2022 19.4427 15.8924 19.1728 15.6925L14.1254 12.0043L19.1728 8.31619C19.4427 8.12629 19.5926 7.80645 19.5826 7.47662V7.46662ZM16.814 16.4421L12.5862 19.1607V13.3536L16.814 16.4421ZM12.5862 10.645V4.83795L16.814 7.55658L12.5862 10.645Z" fill="white"/>
</svg>
