<svg width="24" height="24" viewBox="0 0 24 24" fill="none" xmlns="http://www.w3.org/2000/svg">
<path d="M16.8232 9.11719C16.8231 8.82094 16.7056 8.53664 16.4961 8.32715C16.2865 8.11768 16.0023 8.00005 15.7061 8H5.11719C4.82093 8.00012 4.53664 8.11766 4.32715 8.32715C4.11766 8.53664 4.00012 8.82093 4 9.11719V15.4707C4.00003 15.767 4.11768 16.0512 4.32715 16.2607C4.53664 16.4702 4.82094 16.5878 5.11719 16.5879H15.7061C16.0024 16.5878 16.2865 16.4703 16.4961 16.2607C16.7056 16.0512 16.8232 15.7671 16.8232 15.4707V9.11719ZM20 13.8828V10.7061C20 10.1538 20.4477 9.70605 21 9.70605C21.5523 9.70605 22 10.1538 22 10.7061V13.8828C21.9998 14.4349 21.5521 14.8828 21 14.8828C20.4479 14.8828 20.0002 14.4349 20 13.8828ZM18.8232 15.4707C18.8232 16.2975 18.4948 17.0902 17.9102 17.6748C17.3255 18.2594 16.5328 18.5878 15.7061 18.5879H5.11719C4.2905 18.5878 3.49765 18.2594 2.91309 17.6748C2.32855 17.0902 2.00003 16.2974 2 15.4707V9.11719C2.00012 8.2905 2.32852 7.49765 2.91309 6.91309C3.49765 6.32852 4.2905 6.00012 5.11719 6H15.7061C16.5328 6.00005 17.3255 6.32854 17.9102 6.91309C18.4947 7.49765 18.8231 8.2905 18.8232 9.11719V15.4707Z" fill="white"/>
</svg>
