<svg width="24" height="24" viewBox="0 0 24 24" fill="none" xmlns="http://www.w3.org/2000/svg">
<path fill-rule="evenodd" clip-rule="evenodd" d="M13.3112 11.5625V18.3345H11.5249V11.5625H13.3112ZM15.9558 19.2276C17.158 19.2276 18.1316 20.202 18.1316 21.4034V21.7767C18.1316 21.9 18.0315 22 17.9083 22H6.92588C6.80262 22 6.70258 21.9 6.70258 21.7767V21.4034C6.70258 20.2012 7.67703 19.2276 8.87835 19.2276H15.9558ZM16.9669 2C17.0732 2 17.1652 2.07503 17.1857 2.17953L18.8292 10.403C18.8426 10.4682 18.8256 10.537 18.7827 10.5879C18.7407 10.6397 18.6773 10.6692 18.6103 10.6692H6.22285C6.15586 10.6692 6.09245 10.6388 6.05047 10.5879C6.00849 10.5361 5.99152 10.4682 6.00402 10.403L7.64746 2.17953C7.66801 2.07503 7.76 2 7.86629 2H16.9669Z" fill="white"/>
</svg>
