<svg width="24" height="24" viewBox="0 0 24 24" fill="none" xmlns="http://www.w3.org/2000/svg">
<path d="M18.0156 14.7891V11.0137L18.0058 10.7617C17.8315 8.17003 15.4719 6.00952 12.7187 6.00293L11.2529 6C8.42 5.99324 6.00442 8.3052 5.98531 11.0068V14.79C5.98531 15.6447 5.88165 16.6534 5.29 17.5557L5.00386 17.9941L5.00289 17.9961C5.00173 17.9978 5.00049 17.999 4.99996 18H19V17.999C18.9994 17.998 18.9981 17.9968 18.997 17.9951V17.9941L18.7099 17.5566V17.5557C18.1198 16.6541 18.0156 15.6448 18.0156 14.7891ZM10.2705 20C10.357 20.1497 10.4616 20.2897 10.5859 20.4141C10.9609 20.7891 11.4697 20.9999 12 21C12.5304 21 13.0399 20.7891 13.415 20.4141C13.5392 20.2898 13.643 20.1495 13.7295 20H10.2705ZM13 4C13 3.73478 12.8945 3.48051 12.707 3.29297C12.5195 3.10548 12.2651 3 12 3C11.7348 3.00004 11.4804 3.10547 11.2929 3.29297C11.1054 3.4805 11 3.73482 11 4H13ZM15 4.37695C17.8182 5.31116 19.9781 7.90041 20.0156 10.9893V14.7891C20.0156 15.5127 20.1124 16.0477 20.3818 16.46L20.6689 16.8975L20.7441 17.0215C21.4685 18.3133 20.5741 19.9998 19.0156 20H15.873C15.6959 20.6861 15.3386 21.3195 14.8291 21.8291C14.0789 22.5792 13.0608 23 12 23C10.9393 22.9999 9.92188 22.579 9.17183 21.8291C8.66227 21.3195 8.30503 20.6861 8.12789 20H4.98531C3.37811 20 2.47186 18.2034 3.33199 16.8965L3.61812 16.46L3.71187 16.2998C3.91137 15.9122 3.98531 15.4246 3.98531 14.79V10.9932C4.00698 7.89792 6.1694 5.28706 8.99996 4.36133V4C8.99996 3.20439 9.31631 2.44151 9.87886 1.87891C10.4414 1.31634 11.2044 1.00004 12 1C12.7956 1 13.5585 1.31635 14.1211 1.87891C14.6837 2.44152 15 3.20435 15 4V4.37695Z" fill="white"/>
</svg>
