<svg width="24" height="24" viewBox="0 0 24 24" fill="none" xmlns="http://www.w3.org/2000/svg">
<path d="M17.3232 9.11719C17.3231 8.82094 17.2056 8.53664 16.9961 8.32715C16.7865 8.11768 16.5023 8.00005 16.2061 8H5.61719C5.32093 8.00012 5.03664 8.11766 4.82715 8.32715C4.61766 8.53664 4.50012 8.82093 4.5 9.11719V15.4707C4.50003 15.767 4.61768 16.0512 4.82715 16.2607C5.03664 16.4702 5.32094 16.5878 5.61719 16.5879H16.2061C16.5024 16.5878 16.7865 16.4703 16.9961 16.2607C17.2056 16.0512 17.3232 15.7671 17.3232 15.4707V9.11719ZM20.5 13.8828V10.7061C20.5 10.1538 20.9477 9.70605 21.5 9.70605C22.0523 9.70605 22.5 10.1538 22.5 10.7061V13.8828C22.4998 14.4349 22.0521 14.8828 21.5 14.8828C20.9479 14.8828 20.5002 14.4349 20.5 13.8828ZM19.3232 15.4707C19.3232 16.2975 18.9948 17.0902 18.4102 17.6748C17.8255 18.2594 17.0328 18.5878 16.2061 18.5879H5.61719C4.7905 18.5878 3.99765 18.2594 3.41309 17.6748C2.82855 17.0902 2.50003 16.2974 2.5 15.4707V9.11719C2.50012 8.2905 2.82852 7.49765 3.41309 6.91309C3.99765 6.32852 4.7905 6.00012 5.61719 6H16.2061C17.0328 6.00005 17.8255 6.32854 18.4102 6.91309C18.9947 7.49765 19.3231 8.2905 19.3232 9.11719V15.4707Z" fill="white"/>
<path d="M5.5 9.6C5.5 9.26863 5.76863 9 6.1 9H6.9C7.23137 9 7.5 9.26863 7.5 9.6V14.9C7.5 15.2314 7.23137 15.5 6.9 15.5H6.1C5.76863 15.5 5.5 15.2314 5.5 14.9V9.6Z" fill="white"/>
</svg>
