<svg width="24" height="24" viewBox="0 0 24 24" fill="none" xmlns="http://www.w3.org/2000/svg">
<path d="M20.2085 12.6599C20.0482 12.4774 19.9598 12.2429 19.9598 12C19.9598 11.7571 20.0482 11.5226 20.2085 11.3401L21.4883 9.90029C21.6293 9.74298 21.7169 9.54504 21.7385 9.33487C21.76 9.1247 21.7144 8.91311 21.6083 8.73044L19.6086 5.27092C19.5035 5.08846 19.3435 4.94384 19.1514 4.85766C18.9593 4.77148 18.7449 4.74814 18.5387 4.79098L16.659 5.17093C16.4198 5.22035 16.1708 5.18052 15.9589 5.05894C15.7471 4.93737 15.5871 4.74247 15.5091 4.51102L14.8992 2.68127C14.8321 2.48267 14.7043 2.31018 14.5339 2.18818C14.3634 2.06617 14.1589 2.00082 13.9493 2.00136H9.94987C9.73184 1.98998 9.51607 2.05028 9.33552 2.17305C9.15497 2.29582 9.01958 2.47431 8.95001 2.68127L8.39008 4.51102C8.3121 4.74247 8.15209 4.93737 7.94026 5.05894C7.72843 5.18052 7.47942 5.22035 7.24024 5.17093L5.3105 4.79098C5.11508 4.76336 4.91586 4.7942 4.73793 4.87961C4.56 4.96501 4.41133 5.10117 4.31064 5.27092L2.31091 8.73044C2.20209 8.91107 2.15316 9.12148 2.17111 9.33159C2.18907 9.5417 2.273 9.74075 2.4109 9.90029L3.68073 11.3401C3.84102 11.5226 3.92943 11.7571 3.92943 12C3.92943 12.2429 3.84102 12.4774 3.68073 12.6599L2.4109 14.0997C2.273 14.2593 2.18907 14.4583 2.17111 14.6684C2.15316 14.8785 2.20209 15.0889 2.31091 15.2696L4.31064 18.7291C4.41572 18.9115 4.57572 19.0562 4.76783 19.1423C4.95994 19.2285 5.17435 19.2519 5.38049 19.209L7.26024 18.8291C7.49942 18.7796 7.74843 18.8195 7.96026 18.9411C8.17209 19.0626 8.33209 19.2575 8.41008 19.489L9.02 21.3187C9.08957 21.5257 9.22497 21.7042 9.40551 21.827C9.58606 21.9497 9.80183 22.01 10.0199 21.9986H14.0193C14.2289 21.9992 14.4334 21.9338 14.6039 21.8118C14.7743 21.6898 14.9021 21.5173 14.9692 21.3187L15.5791 19.489C15.6571 19.2575 15.8171 19.0626 16.0289 18.9411C16.2408 18.8195 16.4898 18.7796 16.7289 18.8291L18.6087 19.209C18.8148 19.2519 19.0293 19.2285 19.2214 19.1423C19.4135 19.0562 19.5735 18.9115 19.6785 18.7291L21.6783 15.2696C21.7844 15.0869 21.83 14.8753 21.8084 14.6651C21.7869 14.455 21.6993 14.257 21.5583 14.0997L20.2085 12.6599ZM18.7187 13.9997L19.5186 14.8996L18.2387 17.1193L17.0589 16.8793C16.3388 16.7321 15.5897 16.8545 14.9538 17.2231C14.3179 17.5917 13.8395 18.181 13.6094 18.8791L13.2294 19.9989H10.6698L10.3098 18.8591C10.0797 18.161 9.6013 17.5717 8.96541 17.2031C8.32952 16.8345 7.58041 16.7121 6.86029 16.8593L5.68045 17.0993L4.38063 14.8896L5.18052 13.9897C5.67241 13.4398 5.94435 12.7278 5.94435 11.99C5.94435 11.2522 5.67241 10.5402 5.18052 9.99027L4.38063 9.0904L5.66046 6.89069L6.8403 7.13066C7.56042 7.27786 8.30952 7.15554 8.94541 6.78691C9.5813 6.41828 10.0597 5.829 10.2898 5.13093L10.6698 4.00109H13.2294L13.6094 5.14093C13.8395 5.839 14.3179 6.42827 14.9538 6.79691C15.5897 7.16554 16.3388 7.28786 17.0589 7.14066L18.2387 6.90069L19.5186 9.12039L18.7187 10.0203C18.2323 10.569 17.9638 11.2768 17.9638 12.01C17.9638 12.7432 18.2323 13.451 18.7187 13.9997ZM11.9496 8.00054C11.1586 8.00054 10.3853 8.23511 9.72762 8.67457C9.06991 9.11404 8.55729 9.73867 8.25458 10.4695C7.95187 11.2003 7.87267 12.0044 8.02699 12.7803C8.18131 13.5561 8.56222 14.2687 9.12156 14.828C9.68089 15.3874 10.3935 15.7683 11.1693 15.9226C11.9452 16.0769 12.7493 15.9977 13.4801 15.695C14.2109 15.3923 14.8356 14.8797 15.275 14.222C15.7145 13.5643 15.9491 12.791 15.9491 12C15.9491 10.9393 15.5277 9.922 14.7776 9.17196C14.0276 8.42191 13.0103 8.00054 11.9496 8.00054ZM11.9496 13.9997C11.5541 13.9997 11.1675 13.8824 10.8386 13.6627C10.5098 13.443 10.2534 13.1307 10.1021 12.7653C9.95074 12.3999 9.91114 11.9978 9.9883 11.6099C10.0655 11.222 10.2559 10.8656 10.5356 10.586C10.8152 10.3063 11.1716 10.1159 11.5595 10.0387C11.9474 9.96154 12.3495 10.0011 12.7149 10.1525C13.0803 10.3038 13.3926 10.5602 13.6123 10.889C13.832 11.2179 13.9493 11.6045 13.9493 12C13.9493 12.5304 13.7386 13.039 13.3636 13.414C12.9886 13.789 12.48 13.9997 11.9496 13.9997Z" fill="white"/>
</svg>
