<svg width="24" height="24" viewBox="0 0 24 24" fill="none" xmlns="http://www.w3.org/2000/svg">
<path d="M18.5774 4.86284L19.1062 3.27618C19.1788 3.05808 19.1421 2.81903 19.0079 2.6326C18.8736 2.44618 18.6581 2.33594 18.4286 2.33594H5.57143C5.3419 2.33594 5.12643 2.44618 4.99214 2.63284C4.85786 2.81903 4.82119 3.05832 4.89381 3.27641L5.42262 4.86308C2.91167 6.4676 2 9.71356 2 12.3359C2 16.3831 4.41524 20.0069 8.15333 21.5667C8.24048 21.6028 8.33405 21.6217 8.42857 21.6217H15.5714C15.666 21.6217 15.7595 21.6028 15.8467 21.5667C19.4121 20.0788 22 16.1962 22 12.3359C22 9.71356 21.0883 6.4676 18.5774 4.86284ZM17 15.1931C17 15.8221 15.9693 17.5574 13.7029 17.9631C12.8714 16.1047 12.8714 14.2812 13.7031 12.4231C15.9693 12.8288 17 14.5638 17 15.1931ZM15.5714 10.9074C15.5714 10.5128 15.8912 10.1931 16.2857 10.1931C16.6802 10.1931 17 10.5128 17 10.9074C17 11.3019 16.6802 11.6217 16.2857 11.6217C15.8912 11.6217 15.5714 11.3019 15.5714 10.9074ZM12.5624 18.0374C10.7326 17.969 8.92476 16.6978 7.6031 15.4814C6.95024 16.1259 6.30571 16.7033 5.92309 17.0352C5.78429 17.1557 5.57143 17.0543 5.57143 16.8707V13.4683C5.57143 13.2926 5.76857 13.1895 5.91024 13.2936C6.29476 13.5767 6.95095 14.084 7.59452 14.6678C8.81071 13.5224 10.5176 12.4005 12.5631 12.3459C11.8148 14.2386 11.8145 16.1452 12.5624 18.0374ZM17.7143 13.0502C17.7143 12.6557 18.034 12.3359 18.4286 12.3359C18.8231 12.3359 19.1429 12.6557 19.1429 13.0502C19.1429 13.4447 18.8231 13.7645 18.4286 13.7645C18.034 13.7645 17.7143 13.4447 17.7143 13.0502ZM6.60524 5.83213C6.92286 5.67308 7.07571 5.30451 6.96333 4.96713L6.56238 3.76451H17.4379L17.0367 4.96713C16.9243 5.30451 17.0771 5.67308 17.3948 5.83213C18.5186 6.3938 19.2448 7.32332 19.715 8.31141C19.2529 8.51546 18.7624 8.76451 18.4286 8.76451C17.8638 8.76451 16.8505 8.05022 16.2857 8.05022C15.721 8.05022 14.7076 8.76451 14.1429 8.76451C13.5781 8.76451 12.5648 8.05022 12 8.05022C11.4352 8.05022 10.4219 8.76451 9.85714 8.76451C9.29238 8.76451 8.27905 8.05022 7.71429 8.05022C7.14952 8.05022 6.13619 8.76451 5.57143 8.76451C5.23738 8.76451 4.74714 8.5157 4.285 8.31141C4.75524 7.32332 5.48143 6.3938 6.60524 5.83213Z" fill="white"/>
<path d="M14.3216 15.0147C14.3216 14.7188 14.5614 14.479 14.8573 14.479C15.1533 14.479 15.393 14.7188 15.393 15.0147C15.393 15.3107 15.1533 15.5505 14.8573 15.5505C14.5614 15.5505 14.3216 15.3107 14.3216 15.0147Z" fill="white"/>
</svg>
