<svg width="24" height="24" viewBox="0 0 24 24" fill="none" xmlns="http://www.w3.org/2000/svg">
<path d="M18.4921 15.5509H4.78012C3.76971 15.5509 2.95215 16.3567 2.95215 17.3507V19.1504C2.95215 20.1453 3.77059 20.9502 4.78012 20.9502H18.4921C19.5025 20.9502 20.32 20.1444 20.32 19.1504V17.3507C20.32 16.3559 19.5016 15.5509 18.4921 15.5509ZM13.4641 18.7007H5.23689C4.9858 18.7007 4.78012 18.4982 4.78012 18.251C4.78012 18.0038 4.9858 17.8013 5.23689 17.8013H13.4641C13.7152 17.8013 13.9208 18.0038 13.9208 18.251C13.9208 18.4982 13.7152 18.7007 13.4641 18.7007ZM15.5209 18.926C15.1412 18.926 14.8353 18.6248 14.8353 18.251C14.8353 17.8772 15.1412 17.576 15.5209 17.576C15.9005 17.576 16.2065 17.8772 16.2065 18.251C16.2065 18.6248 15.9005 18.926 15.5209 18.926ZM17.8065 18.926C17.4268 18.926 17.1209 18.6248 17.1209 18.251C17.1209 17.8772 17.4268 17.576 17.8065 17.576C18.1861 17.576 18.4921 17.8772 18.4921 18.251C18.4921 18.6248 18.1861 18.926 17.8065 18.926Z" fill="white"/>
<path d="M18.4921 9.25056H4.78012C3.76971 9.25056 2.95215 10.0564 2.95215 11.0503V12.8501C2.95215 13.8449 3.77059 14.6498 4.78012 14.6498H18.4921C19.5025 14.6498 20.32 13.844 20.32 12.8501V11.0503C20.32 10.0555 19.5016 9.25056 18.4921 9.25056ZM13.4641 12.4004H5.23689C4.9858 12.4004 4.78012 12.1978 4.78012 11.9506C4.78012 11.7034 4.9858 11.5009 5.23689 11.5009H13.4641C13.7152 11.5009 13.9208 11.7034 13.9208 11.9506C13.9208 12.1978 13.7152 12.4004 13.4641 12.4004ZM15.5209 12.6256C15.1412 12.6256 14.8353 12.3244 14.8353 11.9506C14.8353 11.5768 15.1412 11.2756 15.5209 11.2756C15.9005 11.2756 16.2065 11.5768 16.2065 11.9506C16.2065 12.3244 15.9005 12.6256 15.5209 12.6256ZM17.8065 12.6256C17.4268 12.6256 17.1209 12.3244 17.1209 11.9506C17.1209 11.5768 17.4268 11.2756 17.8065 11.2756C18.1861 11.2756 18.4921 11.5768 18.4921 11.9506C18.4921 12.3244 18.1861 12.6256 17.8065 12.6256Z" fill="white"/>
<path d="M18.4921 2.9502H4.78012C3.76971 2.9502 2.95215 3.756 2.95215 4.74995V6.54971C2.95215 7.54453 3.77059 8.34947 4.78012 8.34947H18.4921C19.5025 8.34947 20.32 7.54366 20.32 6.54971V4.74995C20.32 3.75514 19.5016 2.9502 18.4921 2.9502ZM13.4641 6.10085H5.23689C4.9858 6.10085 4.78012 5.89835 4.78012 5.65113C4.78012 5.40391 4.9858 5.20141 5.23689 5.20141H13.4641C13.7152 5.20141 13.9208 5.40391 13.9208 5.65113C13.9208 5.89835 13.7152 6.10085 13.4641 6.10085ZM15.5209 6.32531C15.1412 6.32531 14.8353 6.02409 14.8353 5.65029C14.8353 5.27649 15.1412 4.97527 15.5209 4.97527C15.9005 4.97527 16.2065 5.27649 16.2065 5.65029C16.2065 6.02409 15.9005 6.32531 15.5209 6.32531ZM17.8065 6.32531C17.4268 6.32531 17.1209 6.02409 17.1209 5.65029C17.1209 5.27649 17.4268 4.97527 17.8065 4.97527C18.1861 4.97527 18.4921 5.27649 18.4921 5.65029C18.4921 6.02409 18.1861 6.32531 17.8065 6.32531Z" fill="white"/>
</svg>
