<svg width="24" height="24" viewBox="0 0 24 24" fill="none" xmlns="http://www.w3.org/2000/svg">
<path d="M7.80004 5.40002C6.474 5.40002 5.40002 6.474 5.40002 7.80004C5.40002 9.12607 6.474 10.2001 7.80004 10.2001C9.12607 10.2001 10.2001 9.12607 10.2001 7.80004C10.2001 6.474 9.12607 5.40002 7.80004 5.40002ZM7.20002 8.4C7.20002 8.73002 6.93002 9.00002 6.6 9.00002C6.26998 9.00002 5.99998 8.73002 5.99998 8.4V7.20002C5.99998 6.87 6.26998 6.6 6.6 6.6C6.93002 6.6 7.20002 6.87 7.20002 7.20002V8.4ZM9.00002 9.00002C8.67 9.00002 8.4 8.73002 8.4 8.4V7.20002C8.4 6.87 8.67 6.6 9.00002 6.6C9.33004 6.6 9.60004 6.87 9.60004 7.20002V8.4C9.60004 8.73002 9.33004 9.00002 9.00002 9.00002Z" fill="white"/>
<path d="M11.196 3H4.40406C3.63 3 3 3.63 3 4.404V19.596C3 20.37 3.63 21 4.404 21H11.196C11.97 21 12.6 20.37 12.6 19.596V4.404C12.6 3.63 11.97 3 11.196 3ZM7.80004 19.8C5.81402 19.8 4.20004 18.186 4.20004 16.2C4.20004 14.214 5.81402 12.6 7.80004 12.6C9.78606 12.6 11.4 14.214 11.4 16.2C11.4 18.186 9.78606 19.8 7.80004 19.8ZM7.80004 11.4C5.81402 11.4 4.20004 9.78606 4.20004 7.80004C4.20004 5.81402 5.81402 4.19998 7.80004 4.19998C9.78606 4.19998 11.4 5.81396 11.4 7.79998C11.4 9.786 9.78606 11.4 7.80004 11.4ZM7.80004 13.8001C6.474 13.8001 5.40002 14.874 5.40002 16.2001C5.40002 17.5261 6.474 18.6001 7.80004 18.6001C9.12607 18.6001 10.2001 17.5261 10.2001 16.2001C10.2001 14.874 9.12607 13.8001 7.80004 13.8001ZM7.20002 16.8C7.20002 17.1301 6.93002 17.4001 6.6 17.4001C6.26998 17.4001 5.99998 17.1301 5.99998 16.8V15.6001C5.99998 15.27 6.26998 15 6.6 15C6.93002 15 7.20002 15.27 7.20002 15.6001V16.8ZM9.60004 16.8C9.60004 17.1301 9.33004 17.4001 9.00002 17.4001C8.67 17.4001 8.4 17.1301 8.4 16.8V15.6001C8.4 15.27 8.67 15 9.00002 15C9.33004 15 9.60004 15.27 9.60004 15.6001V16.8Z" fill="white"/>
<path d="M19.2001 7.20002H15.6C14.9373 7.20002 14.4 7.73727 14.4 8.4V9.60004C14.4 10.2628 14.9373 10.8 15.6 10.8H19.2001C19.8628 10.8 20.4 10.2628 20.4 9.60004V8.4C20.4 7.73727 19.8628 7.20002 19.2001 7.20002Z" fill="white"/>
<path d="M19.2 9.59998H15.6C15.2683 9.59998 15 9.86863 15 10.2V11.4C15 12.7233 16.0763 13.8 17.4 13.8C18.7237 13.8 19.8 12.7233 19.8 11.4V10.2C19.8 9.86863 19.5316 9.59998 19.2 9.59998Z" fill="white"/>
<path d="M16.2 8.4C15.8684 8.4 15.6 8.13135 15.6 7.79998V5.40002C15.6 5.06865 15.8684 4.8 16.2 4.8C16.5317 4.8 16.8 5.06865 16.8 5.40002V7.80004C16.8 8.13141 16.5317 8.4 16.2 8.4Z" fill="white"/>
<path d="M18.6 8.4C18.2684 8.4 18 8.13135 18 7.79998V5.40002C18 5.06865 18.2684 4.8 18.6 4.8C18.9317 4.8 19.2001 5.06865 19.2001 5.40002V7.80004C19.2001 8.13141 18.9317 8.4 18.6 8.4Z" fill="white"/>
<path d="M18 13.2V16.674C18 18.324 16.656 19.674 15 19.674H13.794C13.8001 19.65 13.8001 19.62 13.8001 19.5959V18.4739H15C15.99 18.4739 16.8 17.6639 16.8 16.6739V13.1999C16.8 12.8699 17.07 12.5999 17.4001 12.5999C17.7301 12.5999 18 12.87 18 13.2Z" fill="white"/>
</svg>
