<svg width="24" height="24" viewBox="0 0 24 24" fill="none" xmlns="http://www.w3.org/2000/svg">
<path d="M4.00098 21.998C5.10555 21.998 6.00098 21.1026 6.00098 19.998C6.00098 18.8935 5.10555 17.998 4.00098 17.998C2.89641 17.998 2.00098 18.8935 2.00098 19.998C2.00098 21.1026 2.89641 21.998 4.00098 21.998Z" fill="white"/>
<path d="M12 21.998C13.1046 21.998 14 21.1026 14 19.998C14 18.8935 13.1046 17.998 12 17.998C10.8954 17.998 10 18.8935 10 19.998C10 21.1026 10.8954 21.998 12 21.998Z" fill="white"/>
<path d="M11.999 13.998C13.1036 13.998 13.999 13.1026 13.999 11.998C13.999 10.8935 13.1036 9.99805 11.999 9.99805C10.8945 9.99805 9.99902 10.8935 9.99902 11.998C9.99902 13.1026 10.8945 13.998 11.999 13.998Z" fill="white"/>
<path d="M20 6C21.1046 6 22 5.10457 22 4C22 2.89543 21.1046 2 20 2C18.8954 2 18 2.89543 18 4C18 5.10457 18.8954 6 20 6Z" fill="white"/>
<path d="M20.001 21.998C21.1055 21.998 22.001 21.1026 22.001 19.998C22.001 18.8935 21.1055 17.998 20.001 17.998C18.8964 17.998 18.001 18.8935 18.001 19.998C18.001 21.1026 18.8964 21.998 20.001 21.998Z" fill="white"/>
<path d="M20 14C21.1046 14 22 13.1046 22 12C22 10.8954 21.1046 10 20 10C18.8954 10 18 10.8954 18 12C18 13.1046 18.8954 14 20 14Z" fill="white"/>
</svg>
