<svg width="24" height="24" viewBox="0 0 24 24" fill="none" xmlns="http://www.w3.org/2000/svg">
<path d="M10.1826 11.3906C10.3616 11.3906 10.5095 11.4213 10.626 11.4824C10.7423 11.542 10.8289 11.6262 10.8857 11.7354C10.944 11.8433 10.9736 11.9703 10.9736 12.1152C10.9736 12.2586 10.9439 12.3854 10.8857 12.4961C10.8289 12.6055 10.7424 12.6914 10.626 12.7539C10.511 12.8149 10.3649 12.8457 10.1875 12.8457H9.56055V11.3906H10.1826Z" fill="white"/>
<path d="M14.1406 11.6338L14.6768 13.2852H13.5693L14.1064 11.6338H14.1406Z" fill="white"/>
<path d="M18.5322 11.3906C18.7111 11.3906 18.8591 11.4214 18.9756 11.4824C19.0918 11.542 19.1786 11.6262 19.2354 11.7354C19.2936 11.8433 19.3223 11.9703 19.3223 12.1152C19.3222 12.2585 19.2934 12.3854 19.2354 12.4961C19.1786 12.6053 19.0919 12.6914 18.9756 12.7539C18.8605 12.815 18.7137 12.8457 18.5361 12.8457H17.9102V11.3906H18.5322Z" fill="white"/>
<path fill-rule="evenodd" clip-rule="evenodd" d="M20 7C21.1046 7 22 7.89543 22 9V17C22 18.1046 21.1046 19 20 19H4C2.89543 19 2 18.1046 2 17V9C2 7.89543 2.89543 7 4 7H20ZM5.84277 10.5771C5.45925 10.5771 5.11346 10.6647 4.80664 10.8408C4.49993 11.0155 4.25707 11.2698 4.07812 11.6035C3.89915 11.9373 3.80957 12.3425 3.80957 12.8184C3.80959 13.2927 3.89814 13.6965 4.07422 14.0303C4.25178 14.3641 4.49343 14.6198 4.79883 14.7959C5.10552 14.9718 5.45379 15.0596 5.84277 15.0596C6.12246 15.0595 6.37323 15.0174 6.59473 14.9336C6.81762 14.8484 7.00948 14.7337 7.16992 14.5889C7.33177 14.4426 7.46051 14.2773 7.55566 14.0928C7.65226 13.9067 7.71218 13.713 7.73633 13.5127L6.80371 13.5088C6.78242 13.6251 6.74375 13.7285 6.68848 13.8193C6.6345 13.9102 6.56578 13.9878 6.4834 14.0518C6.40105 14.1142 6.30665 14.1617 6.2002 14.1943C6.09513 14.227 5.98093 14.2432 5.85742 14.2432C5.63725 14.2432 5.443 14.19 5.27539 14.082C5.10787 13.9741 4.97753 13.814 4.88379 13.6025C4.79148 13.3909 4.74513 13.1294 4.74512 12.8184C4.74512 12.5158 4.79146 12.2585 4.88379 12.0469C4.97607 11.834 5.10597 11.6723 5.27344 11.5615C5.44094 11.4494 5.63761 11.3927 5.86328 11.3926C5.98828 11.3926 6.1044 11.4108 6.21094 11.4463C6.31881 11.4818 6.41375 11.5329 6.49609 11.5996C6.57848 11.6664 6.64666 11.7476 6.69922 11.8428C6.75163 11.9364 6.78669 12.0435 6.80371 12.1641H7.73633C7.70652 11.9114 7.63863 11.6871 7.53223 11.4912C7.42711 11.2952 7.29066 11.1291 7.12305 10.9941C6.95555 10.8579 6.76304 10.7546 6.5459 10.6836C6.33009 10.6126 6.09548 10.5772 5.84277 10.5771ZM8.6377 10.6367V15H9.56055V13.585H10.3359C10.6711 13.585 10.9566 13.5229 11.1924 13.3994C11.4296 13.2758 11.6113 13.1034 11.7363 12.8818C11.8612 12.6604 11.9238 12.4048 11.9238 12.1152C11.9238 11.8255 11.8619 11.5692 11.7383 11.3477C11.6162 11.1249 11.4387 10.9511 11.2061 10.8262C10.9731 10.6998 10.6903 10.6367 10.3594 10.6367H8.6377ZM13.5293 10.6367L12.0225 15H13.0107L13.335 14.0049H14.9102L15.2334 15H16.2217L14.7178 10.6367H13.5293ZM16.9873 10.6367V15H17.9102V13.585H18.6855C19.0207 13.585 19.3062 13.523 19.542 13.3994C19.7791 13.2758 19.96 13.1034 20.085 12.8818C20.2099 12.6603 20.2724 12.4049 20.2725 12.1152C20.2725 11.8255 20.2115 11.5692 20.0879 11.3477C19.9657 11.1247 19.7876 10.9512 19.5547 10.8262C19.3218 10.6998 19.0399 10.6367 18.709 10.6367H16.9873Z" fill="white"/>
</svg>
