<svg width="24" height="24" viewBox="0 0 24 24" fill="none" xmlns="http://www.w3.org/2000/svg">
<path d="M9.3 21.2998C8.76 21.2998 8.4 20.9398 8.4 20.3998V17.6998H4.8C3.81 17.6998 3 16.8898 3 15.8998V5.0998C3 4.1098 3.81 3.2998 4.8 3.2998H19.2C20.19 3.2998 21 4.1098 21 5.0998V15.8998C21 16.8898 20.19 17.6998 19.2 17.6998H13.71L10.38 21.0298C10.2 21.2098 10.02 21.2998 9.75 21.2998H9.3ZM10.2 15.8998V18.6898L12.99 15.8998H19.2V5.0998H4.8V15.8998H10.2ZM15.87 6.8998L14.61 9.5998H16.5V13.1998H12.9V9.4198L14.07 6.8998H15.87ZM10.47 6.8998L9.21 9.5998H11.1V13.1998H7.5V9.4198L8.67 6.8998H10.47Z" fill="white"/>
</svg>
